<svg xmlns="http://www.w3.org/2000/svg" xmlns:xlink="http://www.w3.org/1999/xlink" version="1.1" x="0px" y="0px" viewBox="0 0 1024 1024" style="enable-background:new 0 0 1024 1024;" xml:space="preserve">

<style>    /* <![CDATA[ */
    path {
      fill: white;
      opacity: 0.75;
    }
    /* ]]> */
    </style> 


	<g><g><g><path d="M854.5,512.5c0,17.6-1.2,35.2-3.5,52.7c0.6-4.4,1.2-8.9,1.8-13.3c-4.7,34.3-13.8,67.9-27.3,99.8     c1.7-4,3.4-8,5-11.9c-13.2,31.2-30.4,60.5-51.1,87.3c2.6-3.4,5.2-6.7,7.8-10.1c-20.4,26.2-44,49.8-70.2,70.2     c3.4-2.6,6.7-5.2,10.1-7.8c-26.8,20.7-56.1,37.9-87.3,51.1c4-1.7,8-3.4,11.9-5c-31.9,13.4-65.5,22.6-99.8,27.3     c4.4-0.6,8.9-1.2,13.3-1.8c-35,4.6-70.5,4.6-105.5,0c4.4,0.6,8.9,1.2,13.3,1.8c-34.3-4.7-67.9-13.8-99.8-27.3c4,1.7,8,3.4,11.9,5     c-31.2-13.2-60.5-30.4-87.3-51.1c3.4,2.6,6.7,5.2,10.1,7.8c-26.2-20.4-49.8-44-70.2-70.2c2.6,3.4,5.2,6.7,7.8,10.1     c-20.7-26.8-37.9-56.1-51.1-87.3c1.7,4,3.4,8,5,11.9c-13.4-31.9-22.6-65.5-27.3-99.8c0.6,4.4,1.2,8.9,1.8,13.3     c-4.6-35-4.6-70.5,0-105.5c-0.6,4.4-1.2,8.9-1.8,13.3c4.7-34.3,13.8-67.9,27.3-99.8c-1.7,4-3.4,8-5,11.9     c13.2-31.2,30.4-60.5,51.1-87.3c-2.6,3.4-5.2,6.7-7.8,10.1c20.4-26.2,44-49.8,70.2-70.2c-3.4,2.6-6.7,5.2-10.1,7.8     c26.8-20.7,56.1-37.9,87.3-51.1c-4,1.7-8,3.4-11.9,5c31.9-13.4,65.5-22.6,99.8-27.3c-4.4,0.6-8.9,1.2-13.3,1.8     c35-4.6,70.5-4.6,105.5,0c-4.4-0.6-8.9-1.2-13.3-1.8c34.3,4.7,67.9,13.8,99.8,27.3c-4-1.7-8-3.4-11.9-5     c31.2,13.2,60.5,30.4,87.3,51.1c-3.4-2.6-6.7-5.2-10.1-7.8c26.2,20.4,49.8,44,70.2,70.2c-2.6-3.4-5.2-6.7-7.8-10.1     c20.7,26.8,37.9,56.1,51.1,87.3c-1.7-4-3.4-8-5-11.9c13.4,31.9,22.6,65.5,27.3,99.8c-0.6-4.4-1.2-8.9-1.8-13.3     C853.3,477.3,854.5,494.9,854.5,512.5c0,12.8,5.6,26.3,14.6,35.4c8.7,8.7,22.9,15.2,35.4,14.6c12.9-0.6,26.3-4.8,35.4-14.6     c9-9.8,14.7-21.8,14.6-35.4c-0.2-89.3-27.4-179.6-79.4-252.5c-13.9-19.4-28.9-38.2-45.5-55.4c-16.4-16.9-34.4-31.8-53-46.2     c-35-26.8-74.2-47-115.5-62.2c-42.4-15.6-88-23.7-133.1-25.4c-45.5-1.8-92.2,3.9-136,16.3C308,111,230,160.6,174.5,228     c-15.2,18.5-29.5,37.8-41.8,58.3c-12.2,20.4-22,41.9-31.1,63.9c-17.2,41.8-26.4,86.4-29.9,131.4c-7,89.7,15.7,182.3,62.3,259.1     c45.1,74.2,112.8,136.5,192.2,172.3c22,9.9,44.5,18.8,67.7,25.3c23.8,6.6,48.1,10.6,72.7,13.4c45.8,5.3,92.4,2.2,137.5-7     C690,927.5,771,881.8,831.4,818.5c60.7-63.6,103.5-146,116.8-233.2c3.7-24.2,6.2-48.4,6.3-72.8c0-12.8-5.6-26.3-14.6-35.4     c-8.7-8.7-22.9-15.2-35.4-14.6c-12.9,0.6-26.3,4.8-35.4,14.6C860.2,486.9,854.5,498.9,854.5,512.5z"></path></g></g><g><g><path d="M561.5,704c0-23.4,0-46.7,0-70.1c0-37.1,0-74.1,0-111.2c0-8.6,0-17.1,0-25.7c0-12.8-5.6-26.3-14.6-35.4     c-8.7-8.7-22.9-15.2-35.4-14.6c-12.9,0.6-26.3,4.8-35.4,14.6c-9,9.8-14.6,21.8-14.6,35.4c0,23.4,0,46.7,0,70.1     c0,37.1,0,74.1,0,111.2c0,8.6,0,17.1,0,25.7c0,12.8,5.6,26.3,14.6,35.4c8.7,8.7,22.9,15.2,35.4,14.6c12.9-0.6,26.3-4.8,35.4-14.6     C555.8,729.6,561.5,717.6,561.5,704L561.5,704z"></path></g></g><g><g><path d="M561.5,346c0-9,0-18,0-27c0-12.8-5.6-26.3-14.6-35.4c-8.7-8.7-22.9-15.2-35.4-14.6     c-12.9,0.6-26.3,4.8-35.4,14.6c-9,9.8-14.6,21.8-14.6,35.4c0,9,0,18,0,27c0,12.8,5.6,26.3,14.6,35.4c8.7,8.7,22.9,15.2,35.4,14.6     c12.9-0.6,26.3-4.8,35.4-14.6C555.8,371.6,561.5,359.6,561.5,346L561.5,346z"></path></g></g></g></svg>